PathFileType	4	(X/Y/Z)	C:\Users\°ÂÌØÂü\Desktop\20210112\bx_n_10_501-Unnamed.trc
DataRate	CameraRate	NumFrames	NumMarkers	Units	OrigDataRate	OrigDataStartFrame	OrigNumFrames
50.00	50.00	       7	0	mm	50.00	328	       436
Frame#	Time	
		

328	6.540	-201.56795	108.48562	1483.97986	-402.40814	261.22864	1271.17627	-754.61591	232.58067	1029.03821	-739.78558	-10.14464	803.47809				-831.53741	275.54443	732.94983	-838.44672	252.46365	629.24066	-824.51361	248.85806	565.73615	-762.94647	206.80086	536.97522	-846.64618	262.53836	486.35837	-517.98218	-73.12528	142.78694	-550.28210	-29.06436	162.54906	-793.35638	36.43413	172.35652	-742.90399	206.95694	815.73621	-598.20428	25.90927	166.55098	-672.35876	51.78717	162.00044	-720.17780	158.63496	222.44817	-798.59351	181.95496	180.71007	-773.09546	230.28574	202.01509	-594.19769	220.08643	173.96140	-882.64728	296.04895	144.56178	-557.73413	255.09927	164.12318	-660.53693	298.69168	156.26576	-623.93677	306.78076	158.24789	-528.04370	304.20193	146.20494	-393.41101	-64.04487	1276.58655	-726.10065	65.05403	219.36385	-831.76324	-55.37448	472.20197	-761.84656	-22.87635	202.13437	-875.63776	-78.62592	141.15715	-824.20959	-77.94276	863.05859	-750.42346	-11.61513	1004.62341	-788.43170	143.88930	572.03992	-794.60754	67.01390	566.67432	-934.80762	84.80056	1089.60657	-676.44220	175.84821	162.94255	-606.96460	-76.16125	156.46153	-648.28705	-68.21803	161.05321				-850.35010	281.30844	868.17084	-750.91345	11.32393	524.30090				-824.11359	-70.73045	746.74896	-812.39221	-42.93299	606.89758	-809.90021	-40.69011	559.30560	
329	6.560	-209.93025	108.53539	1499.47546	-406.72086	261.52515	1283.28113	-752.67987	232.83943	1030.73450	-736.97510	-10.20757	803.66534				-829.70471	275.43573	733.83844	-836.48987	252.51440	630.06232	-823.30365	248.58189	566.52771	-761.74011	206.53227	537.20825	-845.63611	262.55118	486.99231	-517.98560	-73.26885	142.78365	-550.24200	-29.05057	162.52290	-793.31598	36.45475	172.40417	-740.09790	206.83900	816.42664	-598.17389	25.84993	166.55838	-672.48370	51.95210	162.00880	-720.21130	158.73871	222.39600	-798.47498	181.24355	181.48047	-773.13275	230.46388	202.01144	-594.20911	220.22429	174.09085	-882.75427	296.16690	144.71365	-557.76501	255.19955	163.99837	-660.61530	298.72379	156.14717	-623.91736	306.91452	158.05141	-528.00037	304.03870	146.25322	-397.87680	-64.34822	1286.74854	-725.76117	65.33363	219.39981	-830.91376	-55.61029	472.53278	-761.92255	-22.71502	202.11351	-875.71326	-78.92544	141.33623	-821.44818	-78.55788	863.83813	-747.91125	-11.83326	1006.69073	-787.24957	144.04503	571.92950	-792.83875	66.61238	566.33459	-933.37244	85.04597	1088.97449	-676.56830	175.90784	163.15025	-607.00830	-76.19464	156.60779	-648.20294	-68.24902	160.92290				-847.82867	281.35870	868.71747	-749.57074	11.48354	524.00317				-822.05963	-70.29811	747.23254	-810.27661	-43.14961	607.33112	-808.30109	-40.70855	559.49335	
330	6.580	-218.63397	108.54063	1516.30627	-411.32288	262.21469	1295.45020	-750.57880	232.76384	1032.59583	-734.42267	-10.27340	803.68152				-827.68378	274.99414	734.03931	-834.61292	252.46391	630.17688	-821.95642	248.78503	566.91425	-759.98309	206.93088	537.48444	-844.28430	262.23422	487.24210	-517.76666	-73.08511	142.98938	-550.40344	-29.16159	162.51138	-793.27344	36.35242	172.47716	-737.19830	207.24942	816.84863	-598.05109	25.84832	166.72751	-672.67108	52.19948	162.02148	-720.12213	158.35808	221.96754	-798.53424	181.80510	181.04910	-772.92761	230.35031	201.82700	-594.17218	220.31544	174.09943	-882.65753	296.12018	144.66078	-557.91589	255.25717	164.25484	-660.73492	298.79916	156.13370	-624.03229	306.96109	157.92337	-527.92810	304.01538	146.33195	-403.22110	-64.67664	1298.06873	-725.76117	65.33363	219.39981	-829.47290	-55.90265	473.21069	-761.88916	-22.76511	202.13443	-875.93561	-78.84620	141.20265	-819.16010	-77.77402	863.94977	-744.89099	-11.49145	1008.30713	-785.03864	144.49457	571.80603	-791.61121	66.89082	566.27307	-932.72021	84.24519	1088.94299	-676.56323	175.82097	163.10886	-606.84894	-76.09600	156.31581	-648.22748	-68.47908	160.74529				-845.14960	280.82855	869.22443	-748.03058	11.05781	524.30005				-819.83868	-70.48288	747.74371	-808.63086	-42.88910	607.39313	-806.93292	-40.67572	559.70490	
331	6.600	-228.04140	108.85351	1533.20386	-415.68924	264.22858	1308.01892	-747.94531	232.87561	1034.39600	-731.82312	-10.95992	804.05829				-825.33856	274.87460	734.64447	-832.86975	252.04266	630.92542	-820.34460	248.61044	566.67261	-758.88715	206.77278	537.45850	-843.24847	262.26648	487.57159	-517.93671	-73.14762	143.01247	-550.40454	-29.35849	162.54562	-793.31598	36.45475	172.40417	-734.43311	207.25864	817.14960	-598.08398	25.63565	166.91594	-672.67108	52.19948	162.02148	-719.75287	158.37592	222.44823	-798.60846	181.87218	181.06985	-773.14911	230.46281	202.11841	-594.19995	220.39566	174.11656	-882.65753	296.12018	144.66078	-557.99042	255.24146	164.11975	-660.73492	298.79916	156.13370	-623.87561	306.93936	157.72214	-528.00018	304.02240	146.20293	-408.17596	-65.19585	1309.58887	-725.42072	65.79195	219.95171	-828.33881	-55.51653	473.50644	-762.19904	-22.88485	202.17686	-875.86865	-78.72662	141.20197	-816.70966	-77.82128	864.80658	-742.02863	-11.06126	1010.35382	-783.52539	144.14645	572.15112	-789.38599	66.30962	566.82098	-931.63049	84.05471	1088.76160	-676.44073	175.83444	162.83763	-607.05804	-76.43989	156.17496	-648.22748	-68.47908	160.74529				-842.52515	280.42667	869.81403	-746.58051	10.93383	524.30389				-817.26318	-70.11353	747.98474	-806.85669	-42.67288	607.59412	-805.45251	-40.83451	560.51129	
332	6.620	-238.16313	108.92890	1550.41284	-421.43274	264.80981	1319.89001	-745.26349	233.25374	1036.22070	-728.72021	-11.35497	804.50751				-823.16919	274.64294	735.22589	-830.98273	251.60956	631.30615	-818.53558	248.55417	567.41223	-756.86249	206.60974	537.64154	-842.18188	261.76297	488.30215	-517.92572	-73.09308	142.98734	-550.31183	-29.56720	162.29546	-793.30914	36.20181	172.36205	-731.25903	207.73825	817.40790	-598.20953	25.28526	167.31656	-672.56885	51.53939	162.31081	-719.39362	158.08153	222.55084	-798.32874	181.60280	180.94481	-773.11707	230.36745	202.25298	-594.28198	220.34216	174.21782	-882.58673	296.02298	144.71890	-557.96667	255.49353	164.18742	-660.73492	298.79916	156.13370	-623.82520	307.04898	157.90462	-528.03821	303.95508	146.21793	-413.60330	-65.84741	1320.82385	-725.54572	65.23978	219.42838	-827.63440	-55.47733	474.03973	-762.34418	-22.83271	202.00589	-875.87213	-78.71808	140.99890	-812.60864	-77.57536	865.84033	-738.85162	-11.57157	1012.81891	-781.95764	144.38416	572.38123	-787.28088	66.27546	567.51447				-676.29803	175.64366	162.60452	-606.81146	-76.97290	156.00385	-648.45251	-68.57423	160.43130				-840.13428	280.72827	870.10217	-744.85760	10.25916	524.86841				-814.78857	-70.07818	748.48047	-805.46295	-43.29834	608.31323	-803.86200	-40.91702	561.06464	
333	6.640	-249.06357	109.03941	1567.61438	-427.36798	265.96130	1332.25415	-742.38171	233.48457	1038.10144	-725.47803	-11.38701	804.76349				-820.41064	274.41422	735.66931	-828.87762	251.48172	631.57410	-816.76257	248.30780	567.88776	-755.25476	206.69598	537.54120	-840.64789	261.47958	488.35660	-517.97485	-73.20625	142.95146	-550.45990	-29.42628	162.41551	-793.31384	36.33179	172.42950	-728.12958	208.10083	817.42816	-598.18225	25.23779	167.37750	-672.82495	51.49112	162.56195	-718.95178	158.00679	222.34174	-798.25598	181.44615	180.92200	-772.90546	230.18965	202.02107	-594.07068	220.58025	174.01015	-882.51202	295.94849	144.67389	-558.04419	255.53958	164.14229	-660.73492	298.79916	156.13370	-624.17975	307.10773	157.87378	-527.88879	304.08426	146.35573	-419.95416	-66.15674	1332.17126	-725.41534	65.26484	219.34410	-826.52570	-54.65914	473.96655	-762.53986	-22.88806	202.49245	-875.85034	-78.68372	141.27127	-809.58124	-78.05254	866.97150	-735.40326	-12.00567	1015.23315	-779.38147	144.03024	572.96619	-784.98553	66.00952	567.56561				-676.18921	175.69212	162.59656	-607.03918	-76.91398	156.01643	-648.53143	-69.21864	160.53830				-836.35541	280.23691	870.57104	-743.78577	10.60284	524.68439				-812.55231	-69.53366	749.35608	-803.24487	-43.09274	608.78668	-802.46283	-40.61004	561.28546	
334	6.660	-260.77325	109.47449	1585.25183	-433.52820	267.32916	1344.68213	-739.50012	233.38298	1039.81763	-722.44495	-12.10434	805.04980	-731.87830	-11.69275	1017.00488	-817.71655	273.71881	736.08484	-826.65631	251.38943	632.14966	-815.44330	247.91878	567.89398	-753.93701	206.54320	537.54791	-839.59564	261.18652	488.77866	-517.91650	-72.97339	142.85757	-550.34204	-29.54165	162.18027	-793.43463	36.70511	172.32106	-724.96716	208.15399	817.42511	-598.11414	24.90398	167.95645	-672.89099	51.37556	162.73100	-719.10944	157.77026	222.19264	-798.25598	181.44615	180.92200	-772.87244	230.27321	202.34012	-594.04352	220.78688	174.25493	-882.70374	296.05606	144.64368	-558.38391	255.72325	164.12389	-660.61530	298.72379	156.14717	-624.13409	306.95435	157.96846	-528.00214	303.85010	146.33339	-426.28006	-66.92139	1343.80200	-725.22986	65.07649	219.77098	-825.57965	-55.14205	475.15219	-762.63977	-22.86033	202.33704	-875.82367	-78.74851	141.22487	-806.59143	-77.67574	867.23395				-778.08698	143.82294	573.06134	-782.23187	66.16960	568.13513				-676.31482	175.59500	162.55467	-606.90607	-77.19617	155.97238	-648.62213	-69.39329	160.41656				-833.39124	280.14474	870.94397	-741.87750	9.94289	524.64307				-810.14240	-69.68276	749.72443	-801.22437	-43.07777	609.07605	-800.39136	-40.82924	561.31909	
